# xmcd
#
# Track frame offsets: 
#        150
#        19492
#        38736
#        64605
#        87005
#        111251
#        135023
#        153710
#        190634
#        209648
#        230425
#
# Disc length: 3337 seconds
#
# Revision: 1
# Processed by: cddbd v1.5.2PL0 Copyright (c) Steve Scherf et al.
# Submitted via: ExactAudioCopy v1.3
#
DISCID=8c0d070b
DTITLE=Corey Stevens - Bring On The Blues
DYEAR=2003
DGENRE=Blues Rock
TTITLE0=Lonesome Road Blues
TTITLE1=Hang On
TTITLE2=Real Love
TTITLE3=You're so Evil
TTITLE4=Crazy and Blue
TTITLE5=My Love For You Has Died
TTITLE6=Triple Jack
TTITLE7=My Blues are Truning Red
TTITLE8=Something I Can't Do
TTITLE9=You're Ganna Miss Me
TTITLE10=Getaway (Featuring Canned Heat)
EXTD=YEAR: 2003
EXTT0=
EXTT1=
EXTT2=
EXTT3=
EXTT4=
EXTT5=
EXTT6=
EXTT7=
EXTT8=
EXTT9=
EXTT10=
PLAYORDER=
